# xmcd
#
# Track frame offsets:
#	150
#	58181
#	107513
#	131708
#	153860
#	183400
#
# Disc length: 2811 seconds
#
# Revision: 1
# Processed by: cddbd v1.5.2PL0 Copyright (c) Steve Scherf et al.
# Submitted via: audiograbber 1.83.01
#
DISCID=4a0af906
DTITLE=Grateful Dead - 79-09-05 Madison Square Garden, New York NY
DYEAR=1900
DGENRE=
TTITLE0=Space
TTITLE1=Black Peter
TTITLE2=I Need A Miracle
TTITLE3=Bertha
TTITLE4=Good Lovin'
TTITLE5=US Blues
EXTD=
EXTT0=
EXTT1=
EXTT2=
EXTT3=
EXTT4=
EXTT5=
PLAYORDER=
